G04 MADE WITH FRITZING*
G04 WWW.FRITZING.ORG*
G04 DOUBLE SIDED*
G04 HOLES PLATED*
G04 CONTOUR ON CENTER OF CONTOUR VECTOR*
%ASAXBY*%
%FSLAX23Y23*%
%MOIN*%
%OFA0B0*%
%SFA1.0B1.0*%
%ADD10C,0.049370*%
%ADD11C,0.085000*%
%ADD12C,0.080000*%
%ADD13C,0.116000*%
%ADD14C,0.080866*%
%ADD15C,0.128110*%
%ADD16C,0.082917*%
%ADD17C,0.084000*%
%ADD18C,0.136614*%
%ADD19C,0.093307*%
%ADD20R,0.085000X0.085000*%
%ADD21R,0.093307X0.093307*%
%LNMASK0*%
G90*
G70*
G54D10*
X3820Y2733D03*
X3820Y2533D03*
X82Y1506D03*
X609Y1591D03*
X163Y3536D03*
X699Y2600D03*
G54D11*
X4407Y1634D03*
X4807Y1634D03*
X4527Y938D03*
X4527Y1238D03*
X4627Y938D03*
X4627Y1238D03*
X4727Y938D03*
X4727Y1238D03*
X4827Y938D03*
X4827Y1238D03*
X4529Y3430D03*
X4529Y3730D03*
X4629Y3430D03*
X4629Y3730D03*
X4729Y3430D03*
X4729Y3730D03*
X4829Y3430D03*
X4829Y3730D03*
X4607Y2094D03*
X4607Y2394D03*
X4707Y2094D03*
X4707Y2394D03*
X4807Y2094D03*
X4807Y2394D03*
X4907Y2094D03*
X4907Y2394D03*
X4029Y2107D03*
X4029Y2407D03*
X4129Y2107D03*
X4129Y2407D03*
X4229Y2107D03*
X4229Y2407D03*
X4329Y2107D03*
X4329Y2407D03*
G54D12*
X3899Y2403D03*
X3899Y2203D03*
X4480Y2400D03*
X4480Y2200D03*
X4132Y1948D03*
X4332Y1948D03*
X4969Y1236D03*
X4969Y1036D03*
X4928Y3302D03*
X4728Y3302D03*
X4928Y553D03*
X4728Y553D03*
X4938Y4141D03*
X4938Y3941D03*
G54D11*
X4337Y938D03*
X4337Y1338D03*
X4276Y2854D03*
X4676Y2854D03*
X5039Y1557D03*
X5039Y1957D03*
X4105Y3305D03*
X4505Y3305D03*
X4325Y688D03*
X4725Y688D03*
X4224Y3435D03*
X4224Y3835D03*
X4806Y1903D03*
X4906Y1903D03*
X4904Y2584D03*
X5004Y2584D03*
G54D13*
X5112Y223D03*
X5111Y4288D03*
X427Y223D03*
X428Y4304D03*
G54D14*
X538Y1413D03*
X538Y1235D03*
X538Y1324D03*
X538Y1505D03*
X330Y3241D03*
X330Y3091D03*
X1004Y3410D03*
X1004Y3310D03*
X1004Y3210D03*
X1004Y3110D03*
X1004Y3010D03*
X1004Y2910D03*
X538Y1143D03*
X437Y1369D03*
X437Y1279D03*
X437Y1458D03*
X437Y1188D03*
X437Y1098D03*
X337Y1143D03*
X337Y1505D03*
X337Y1413D03*
X337Y1324D03*
X337Y1235D03*
G54D15*
X436Y1810D03*
X437Y823D03*
G54D16*
X3551Y1313D03*
X3551Y2913D03*
X3551Y1213D03*
X3551Y1113D03*
X3551Y1013D03*
X3551Y913D03*
X2151Y613D03*
X3551Y813D03*
X3551Y713D03*
X1651Y2873D03*
X3551Y2313D03*
X3551Y2213D03*
X3551Y2113D03*
X3551Y2013D03*
X2951Y613D03*
X3551Y1913D03*
X3551Y1813D03*
X3551Y1713D03*
X3551Y1613D03*
X1651Y2113D03*
X1751Y613D03*
X2551Y613D03*
X3351Y613D03*
X1651Y3273D03*
X3551Y2513D03*
X1651Y2513D03*
X1951Y613D03*
X2351Y613D03*
X2751Y613D03*
X1651Y913D03*
X3151Y613D03*
X1651Y1013D03*
X1651Y1113D03*
X1651Y1213D03*
X1651Y1313D03*
X1651Y1413D03*
X1651Y1513D03*
X1651Y1613D03*
X1651Y3473D03*
X1651Y3073D03*
X1651Y2673D03*
X3551Y3113D03*
X3551Y2713D03*
X1651Y1913D03*
X1651Y2313D03*
X1651Y613D03*
X1851Y613D03*
X2051Y613D03*
X2251Y613D03*
X2451Y613D03*
X2651Y613D03*
X2851Y613D03*
X3051Y613D03*
X3251Y613D03*
X1651Y3573D03*
X1651Y3373D03*
X1651Y3173D03*
X1651Y2973D03*
X1651Y2773D03*
X3551Y3213D03*
X3551Y3013D03*
X3551Y2813D03*
X3551Y2613D03*
X1651Y1813D03*
X1651Y2013D03*
X1651Y2213D03*
X1651Y2413D03*
X1651Y513D03*
X1751Y513D03*
X1851Y513D03*
X1951Y513D03*
X2051Y513D03*
X2151Y513D03*
X2251Y513D03*
X2351Y513D03*
X2451Y513D03*
X2551Y513D03*
X2651Y513D03*
X2751Y513D03*
X2851Y513D03*
X2951Y513D03*
X3051Y513D03*
X3151Y513D03*
X3251Y513D03*
X3351Y513D03*
X3551Y1413D03*
X3551Y1313D03*
X3551Y2913D03*
X3551Y1213D03*
X3551Y1113D03*
X3551Y1013D03*
X3551Y913D03*
X2151Y613D03*
X3551Y813D03*
X3551Y713D03*
X1651Y2873D03*
X3551Y2313D03*
X3551Y2213D03*
X3551Y2113D03*
X3551Y2013D03*
X2951Y613D03*
X3551Y1913D03*
X3551Y1813D03*
X3551Y1713D03*
X3551Y1613D03*
X1651Y2113D03*
X1751Y613D03*
X2551Y613D03*
X3351Y613D03*
X1651Y3273D03*
X3551Y2513D03*
X1651Y2513D03*
X1951Y613D03*
X2351Y613D03*
X2751Y613D03*
X1651Y913D03*
X3151Y613D03*
X1651Y1013D03*
X1651Y1113D03*
X1651Y1213D03*
X1651Y1313D03*
X1651Y1413D03*
X1651Y1513D03*
X1651Y1613D03*
X1651Y3473D03*
X1651Y3073D03*
X1651Y2673D03*
X3551Y3113D03*
X3551Y2713D03*
X1651Y1913D03*
X1651Y2313D03*
X1651Y613D03*
X1851Y613D03*
X2051Y613D03*
X2251Y613D03*
X2451Y613D03*
X2651Y613D03*
X2851Y613D03*
X3051Y613D03*
X3251Y613D03*
X1651Y3573D03*
X1651Y3373D03*
X1651Y3173D03*
X1651Y2973D03*
X1651Y2773D03*
X3551Y3213D03*
X3551Y3013D03*
X3551Y2813D03*
X3551Y2613D03*
X1651Y1813D03*
X1651Y2013D03*
X1651Y2213D03*
X1651Y2413D03*
X1651Y513D03*
X1751Y513D03*
X1851Y513D03*
X1951Y513D03*
X2051Y513D03*
X2151Y513D03*
X2251Y513D03*
X2351Y513D03*
X2451Y513D03*
X2551Y513D03*
X2651Y513D03*
X2751Y513D03*
X2851Y513D03*
X2951Y513D03*
X3051Y513D03*
X3151Y513D03*
X3251Y513D03*
X3351Y513D03*
X3551Y1413D03*
G54D11*
X1015Y1312D03*
X1415Y1312D03*
X1016Y1068D03*
X1416Y1068D03*
X1015Y1592D03*
X1415Y1592D03*
X1016Y1700D03*
X1416Y1700D03*
X1015Y866D03*
X1415Y866D03*
X1415Y1939D03*
X1015Y1939D03*
X1417Y717D03*
X1017Y717D03*
G54D17*
X547Y2002D03*
X247Y2002D03*
G54D18*
X4562Y4287D03*
X4012Y4287D03*
G54D17*
X555Y634D03*
X255Y634D03*
G54D18*
X4304Y4291D03*
G54D11*
X901Y1302D03*
X801Y1302D03*
X701Y1302D03*
X904Y1066D03*
X804Y1066D03*
X704Y1066D03*
X908Y873D03*
X808Y873D03*
X708Y873D03*
X892Y1590D03*
X792Y1590D03*
X692Y1590D03*
X906Y713D03*
X806Y713D03*
X706Y713D03*
X899Y1922D03*
X799Y1922D03*
X699Y1922D03*
G54D19*
X5339Y1103D03*
X5339Y965D03*
X5339Y827D03*
X5339Y689D03*
X5339Y551D03*
X5339Y414D03*
X5342Y3396D03*
X5342Y3258D03*
X5342Y3120D03*
X5342Y2982D03*
X5342Y2845D03*
X5342Y2707D03*
X5343Y2082D03*
X5343Y1944D03*
X5340Y1515D03*
X5340Y1377D03*
X5332Y4001D03*
X5332Y3863D03*
X872Y4356D03*
X1010Y4356D03*
X1147Y4356D03*
X1285Y4356D03*
G54D20*
X4527Y938D03*
X4529Y3430D03*
X4607Y2094D03*
X4029Y2107D03*
X4806Y1903D03*
X4904Y2584D03*
G54D21*
X5339Y1103D03*
X5342Y3396D03*
X5343Y2082D03*
X5340Y1515D03*
X5332Y4001D03*
X872Y4356D03*
G04 End of Mask0*
M02*