; NON-PLATED HOLES START AT T1
; THROUGH (PLATED) HOLES START AT T100
M48
INCH
T1C0.106000
T2C0.118110
T100C0.035000
T101C0.086614
T102C0.015748
T103C0.030000
T104C0.043307
T105C0.039370
T106C0.038194
T107C0.035433
%
T1
X051110Y042883
X004279Y043042
X051124Y002226
X004271Y002226
T2
X004367Y008232
X004363Y018103
T100
X014152Y008656
X047272Y012376
X041287Y024068
X045291Y034295
X048291Y034295
X042287Y024068
X048272Y012376
X007014Y013017
X042756Y028538
X010169Y007174
X043366Y009383
X043254Y006881
X046072Y023935
X008042Y010656
X042287Y021068
X006916Y015896
X045272Y012376
X041287Y021068
X007056Y007126
X009014Y013017
X046072Y020935
X040287Y021068
X014157Y016996
X007990Y019222
X010152Y008656
X043366Y013383
X048291Y037295
X045045Y033049
X010164Y010676
X008056Y007126
X014169Y007174
X047272Y009376
X041045Y033049
X046756Y028538
X049072Y023935
X010157Y016996
X007042Y010656
X047072Y020935
X050394Y015568
X043287Y021068
X050038Y025842
X048073Y016335
X049060Y019028
X046272Y009376
X009056Y007126
X048060Y019028
X043287Y024068
X009077Y008734
X050394Y019568
X010150Y015921
X046272Y012376
X048072Y020935
X047254Y006881
X042243Y038350
X014150Y019386
X008014Y013017
X009042Y010656
X047291Y034295
X046291Y037295
X049038Y025842
X049072Y020935
X047072Y023935
X047291Y037295
X042243Y034350
X040287Y024068
X007916Y015896
X008990Y019222
X045272Y009376
X014164Y010676
X048272Y009376
X044073Y016335
X010150Y019386
X046291Y034295
X006990Y019222
X048072Y023935
X010154Y013122
X045291Y037295
X007077Y008734
X008916Y015896
X008077Y008734
X014150Y015921
X014154Y013122
T101
X040117Y042871
X043037Y042908
X045618Y042871
T102
X001630Y035359
X038201Y025330
X038196Y027330
X006094Y015911
X006989Y025998
X000823Y015061
T103
X041323Y019484
X047278Y033017
X044802Y022000
X047284Y005525
X043323Y019484
X049685Y010361
X049685Y012361
X049382Y041409
X049284Y005525
X049278Y033017
X038988Y022034
X049382Y039409
X044802Y024000
X038988Y024034
T104
X008718Y043561
X053392Y006892
X011473Y043561
X053398Y015149
X053392Y004136
X053323Y040008
X053416Y029824
X053416Y033958
X053392Y009648
X053392Y011026
X053428Y020822
X053416Y031202
X053323Y038630
X053392Y008270
X010096Y043561
X012851Y043561
X053416Y032580
X053398Y013771
X053428Y019444
X053416Y027068
X053416Y028446
X053392Y005514
T105
X005384Y011430
X010043Y030095
X010043Y032095
X003372Y011430
X010043Y029095
X005384Y014134
X010043Y031095
X005384Y012347
X004367Y014581
X005384Y015051
X004367Y012794
X003297Y030908
X004367Y010983
X003372Y013241
X004367Y011877
X003372Y015051
X003372Y012347
X003297Y032408
X004367Y013688
X010043Y033095
X005384Y013241
X010043Y034095
X003372Y014134
T106
X016513Y025126
X032513Y005126
X035513Y031126
X017513Y005126
X016513Y029726
X035513Y012126
X016513Y035726
X027513Y005126
X016513Y018126
X031513Y006126
X035513Y022126
X016513Y031726
X016513Y028726
X022513Y006126
X035513Y025126
X035513Y018126
X020513Y005126
X023513Y006126
X023513Y005126
X022513Y005126
X016513Y027726
X025513Y005126
X016513Y013126
X016513Y011126
X019513Y005126
X018513Y005126
X035513Y028126
X024513Y006126
X027513Y006126
X026513Y005126
X016513Y012126
X030513Y005126
X017513Y006126
X016513Y020126
X021513Y006126
X016513Y016126
X016513Y032726
X016513Y014126
X020513Y006126
X035513Y011126
X016513Y009126
X035513Y030126
X016513Y022126
X035513Y027126
X016513Y026726
X035513Y026126
X035513Y008126
X035513Y023126
X019513Y006126
X016513Y023126
X035513Y021126
X025513Y006126
X016513Y034726
X035513Y029126
X016513Y021126
X035513Y009126
X026513Y006126
X035513Y013126
X035513Y010126
X028513Y005126
X032513Y006126
X016513Y019126
X033513Y005126
X021513Y005126
X035513Y016126
X031513Y005126
X035513Y017126
X016513Y006126
X033513Y006126
X016513Y010126
X035513Y019126
X016513Y033726
X028513Y006126
X030513Y006126
X016513Y015126
X016513Y030726
X016513Y005126
X035513Y014126
X035513Y020126
X035513Y007126
X029513Y005126
X029513Y006126
X024513Y005126
X018513Y006126
X016513Y024126
X035513Y032126
T107
X005552Y006340
X005471Y020021
X002552Y006340
X002471Y020021
T00
M30
