G04 MADE WITH FRITZING*
G04 WWW.FRITZING.ORG*
G04 DOUBLE SIDED*
G04 HOLES PLATED*
G04 CONTOUR ON CENTER OF CONTOUR VECTOR*
%ASAXBY*%
%FSLAX23Y23*%
%MOIN*%
%OFA0B0*%
%SFA1.0B1.0*%
%ADD10C,0.039370*%
%ADD11C,0.075000*%
%ADD12C,0.070000*%
%ADD13C,0.070866*%
%ADD14C,0.072917*%
%ADD15C,0.074000*%
%ADD16C,0.126614*%
%ADD17C,0.083307*%
%ADD18R,0.075000X0.075000*%
%ADD19R,0.083307X0.083307*%
%ADD20C,0.024000*%
%ADD21C,0.048000*%
%ADD22C,0.008000*%
%LNCOPPER0*%
G90*
G70*
G54D10*
X3820Y2733D03*
X3820Y2533D03*
X82Y1506D03*
X609Y1591D03*
X163Y3536D03*
X699Y2600D03*
G54D11*
X4407Y1634D03*
X4807Y1634D03*
X4527Y938D03*
X4527Y1238D03*
X4627Y938D03*
X4627Y1238D03*
X4727Y938D03*
X4727Y1238D03*
X4827Y938D03*
X4827Y1238D03*
X4529Y3430D03*
X4529Y3730D03*
X4629Y3430D03*
X4629Y3730D03*
X4729Y3430D03*
X4729Y3730D03*
X4829Y3430D03*
X4829Y3730D03*
X4607Y2094D03*
X4607Y2394D03*
X4707Y2094D03*
X4707Y2394D03*
X4807Y2094D03*
X4807Y2394D03*
X4907Y2094D03*
X4907Y2394D03*
X4029Y2107D03*
X4029Y2407D03*
X4129Y2107D03*
X4129Y2407D03*
X4229Y2107D03*
X4229Y2407D03*
X4329Y2107D03*
X4329Y2407D03*
G54D12*
X3899Y2403D03*
X3899Y2203D03*
X4480Y2400D03*
X4480Y2200D03*
X4132Y1948D03*
X4332Y1948D03*
X4969Y1236D03*
X4969Y1036D03*
X4928Y3302D03*
X4728Y3302D03*
X4928Y553D03*
X4728Y553D03*
X4938Y4141D03*
X4938Y3941D03*
G54D11*
X4337Y938D03*
X4337Y1338D03*
X4276Y2854D03*
X4676Y2854D03*
X5039Y1557D03*
X5039Y1957D03*
X4105Y3305D03*
X4505Y3305D03*
X4325Y688D03*
X4725Y688D03*
X4224Y3435D03*
X4224Y3835D03*
X4806Y1903D03*
X4906Y1903D03*
X4904Y2584D03*
X5004Y2584D03*
G54D13*
X538Y1413D03*
X538Y1235D03*
X538Y1324D03*
X538Y1505D03*
X330Y3241D03*
X330Y3091D03*
X1004Y3410D03*
X1004Y3310D03*
X1004Y3210D03*
X1004Y3110D03*
X1004Y3010D03*
X1004Y2910D03*
X538Y1143D03*
X437Y1369D03*
X437Y1279D03*
X437Y1458D03*
X437Y1188D03*
X437Y1098D03*
X337Y1143D03*
X337Y1505D03*
X337Y1413D03*
X337Y1324D03*
X337Y1235D03*
G54D14*
X3551Y1313D03*
X3551Y2913D03*
X3551Y1213D03*
X3551Y1113D03*
X3551Y1013D03*
X3551Y913D03*
X2151Y613D03*
X3551Y813D03*
X3551Y713D03*
X1651Y2873D03*
X3551Y2313D03*
X3551Y2213D03*
X3551Y2113D03*
X3551Y2013D03*
X2951Y613D03*
X3551Y1913D03*
X3551Y1813D03*
X3551Y1713D03*
X3551Y1613D03*
X1651Y2113D03*
X1751Y613D03*
X2551Y613D03*
X3351Y613D03*
X1651Y3273D03*
X3551Y2513D03*
X1651Y2513D03*
X1951Y613D03*
X2351Y613D03*
X2751Y613D03*
X1651Y913D03*
X3151Y613D03*
X1651Y1013D03*
X1651Y1113D03*
X1651Y1213D03*
X1651Y1313D03*
X1651Y1413D03*
X1651Y1513D03*
X1651Y1613D03*
X1651Y3473D03*
X1651Y3073D03*
X1651Y2673D03*
X3551Y3113D03*
X3551Y2713D03*
X1651Y1913D03*
X1651Y2313D03*
X1651Y613D03*
X1851Y613D03*
X2051Y613D03*
X2251Y613D03*
X2451Y613D03*
X2651Y613D03*
X2851Y613D03*
X3051Y613D03*
X3251Y613D03*
X1651Y3573D03*
X1651Y3373D03*
X1651Y3173D03*
X1651Y2973D03*
X1651Y2773D03*
X3551Y3213D03*
X3551Y3013D03*
X3551Y2813D03*
X3551Y2613D03*
X1651Y1813D03*
X1651Y2013D03*
X1651Y2213D03*
X1651Y2413D03*
X1651Y513D03*
X1751Y513D03*
X1851Y513D03*
X1951Y513D03*
X2051Y513D03*
X2151Y513D03*
X2251Y513D03*
X2351Y513D03*
X2451Y513D03*
X2551Y513D03*
X2651Y513D03*
X2751Y513D03*
X2851Y513D03*
X2951Y513D03*
X3051Y513D03*
X3151Y513D03*
X3251Y513D03*
X3351Y513D03*
X3551Y1413D03*
X3551Y1313D03*
X3551Y2913D03*
X3551Y1213D03*
X3551Y1113D03*
X3551Y1013D03*
X3551Y913D03*
X2151Y613D03*
X3551Y813D03*
X3551Y713D03*
X1651Y2873D03*
X3551Y2313D03*
X3551Y2213D03*
X3551Y2113D03*
X3551Y2013D03*
X2951Y613D03*
X3551Y1913D03*
X3551Y1813D03*
X3551Y1713D03*
X3551Y1613D03*
X1651Y2113D03*
X1751Y613D03*
X2551Y613D03*
X3351Y613D03*
X1651Y3273D03*
X3551Y2513D03*
X1651Y2513D03*
X1951Y613D03*
X2351Y613D03*
X2751Y613D03*
X1651Y913D03*
X3151Y613D03*
X1651Y1013D03*
X1651Y1113D03*
X1651Y1213D03*
X1651Y1313D03*
X1651Y1413D03*
X1651Y1513D03*
X1651Y1613D03*
X1651Y3473D03*
X1651Y3073D03*
X1651Y2673D03*
X3551Y3113D03*
X3551Y2713D03*
X1651Y1913D03*
X1651Y2313D03*
X1651Y613D03*
X1851Y613D03*
X2051Y613D03*
X2251Y613D03*
X2451Y613D03*
X2651Y613D03*
X2851Y613D03*
X3051Y613D03*
X3251Y613D03*
X1651Y3573D03*
X1651Y3373D03*
X1651Y3173D03*
X1651Y2973D03*
X1651Y2773D03*
X3551Y3213D03*
X3551Y3013D03*
X3551Y2813D03*
X3551Y2613D03*
X1651Y1813D03*
X1651Y2013D03*
X1651Y2213D03*
X1651Y2413D03*
X1651Y513D03*
X1751Y513D03*
X1851Y513D03*
X1951Y513D03*
X2051Y513D03*
X2151Y513D03*
X2251Y513D03*
X2351Y513D03*
X2451Y513D03*
X2551Y513D03*
X2651Y513D03*
X2751Y513D03*
X2851Y513D03*
X2951Y513D03*
X3051Y513D03*
X3151Y513D03*
X3251Y513D03*
X3351Y513D03*
X3551Y1413D03*
G54D11*
X1015Y1312D03*
X1415Y1312D03*
X1016Y1068D03*
X1416Y1068D03*
X1015Y1592D03*
X1415Y1592D03*
X1016Y1700D03*
X1416Y1700D03*
X1015Y866D03*
X1415Y866D03*
X1415Y1939D03*
X1015Y1939D03*
X1417Y717D03*
X1017Y717D03*
G54D15*
X547Y2002D03*
X247Y2002D03*
G54D16*
X4562Y4287D03*
X4012Y4287D03*
G54D15*
X555Y634D03*
X255Y634D03*
G54D16*
X4304Y4291D03*
G54D11*
X901Y1302D03*
X801Y1302D03*
X701Y1302D03*
X904Y1066D03*
X804Y1066D03*
X704Y1066D03*
X908Y873D03*
X808Y873D03*
X708Y873D03*
X892Y1590D03*
X792Y1590D03*
X692Y1590D03*
X906Y713D03*
X806Y713D03*
X706Y713D03*
X899Y1922D03*
X799Y1922D03*
X699Y1922D03*
G54D17*
X5339Y1103D03*
X5339Y965D03*
X5339Y827D03*
X5339Y689D03*
X5339Y551D03*
X5339Y414D03*
X5342Y3396D03*
X5342Y3258D03*
X5342Y3120D03*
X5342Y2982D03*
X5342Y2845D03*
X5342Y2707D03*
X5343Y2082D03*
X5343Y1944D03*
X5340Y1515D03*
X5340Y1377D03*
X5332Y4001D03*
X5332Y3863D03*
X872Y4356D03*
X1010Y4356D03*
X1147Y4356D03*
X1285Y4356D03*
G54D18*
X4527Y938D03*
X4529Y3430D03*
X4607Y2094D03*
X4029Y2107D03*
X4806Y1903D03*
X4904Y2584D03*
G54D19*
X5339Y1103D03*
X5342Y3396D03*
X5343Y2082D03*
X5340Y1515D03*
X5332Y4001D03*
X872Y4356D03*
G54D20*
X3820Y2552D02*
X3820Y2714D01*
G54D21*
D02*
X251Y1430D02*
X296Y1421D01*
G54D20*
D02*
X612Y1066D02*
X676Y1066D01*
D02*
X612Y1302D02*
X673Y1302D01*
D02*
X4728Y3328D02*
X4729Y3401D01*
G54D21*
D02*
X1285Y4448D02*
X1285Y4400D01*
D02*
X1147Y4137D02*
X1147Y4312D01*
D02*
X82Y3536D02*
X133Y3536D01*
G54D22*
D02*
X403Y1511D02*
X374Y1459D01*
D02*
X374Y1459D02*
X422Y1389D01*
D02*
X344Y1623D02*
X403Y1511D01*
D02*
X344Y2600D02*
X344Y1623D01*
D02*
X686Y2600D02*
X344Y2600D01*
G54D20*
D02*
X1550Y2313D02*
X1550Y3410D01*
D02*
X1550Y3410D02*
X1035Y3410D01*
D02*
X1621Y2313D02*
X1550Y2313D01*
D02*
X1448Y3310D02*
X1035Y3310D01*
D02*
X1448Y2213D02*
X1448Y3310D01*
D02*
X1621Y2213D02*
X1448Y2213D01*
D02*
X1336Y2113D02*
X1336Y3210D01*
D02*
X1336Y3210D02*
X1035Y3210D01*
D02*
X1621Y2113D02*
X1336Y2113D01*
D02*
X1651Y866D02*
X1444Y866D01*
D02*
X1651Y882D02*
X1651Y866D01*
D02*
X1621Y1313D02*
X1444Y1312D01*
D02*
X1426Y1113D02*
X1422Y1096D01*
D02*
X1621Y1113D02*
X1426Y1113D01*
D02*
X1415Y2013D02*
X1415Y1967D01*
D02*
X1621Y2013D02*
X1415Y2013D01*
D02*
X1418Y1613D02*
X1419Y1620D01*
D02*
X1621Y1613D02*
X1418Y1613D01*
G54D21*
D02*
X872Y4142D02*
X872Y4312D01*
D02*
X1010Y4448D02*
X1010Y4400D01*
D02*
X4806Y1943D02*
X4807Y2054D01*
G54D20*
D02*
X4329Y2078D02*
X4332Y1975D01*
D02*
X4132Y1975D02*
X4129Y2078D01*
D02*
X4407Y1813D02*
X4407Y1662D01*
D02*
X3639Y1813D02*
X4407Y1813D01*
D02*
X3639Y2421D02*
X3639Y1813D01*
D02*
X3333Y2421D02*
X3639Y2421D01*
D02*
X3333Y2773D02*
X3333Y2421D01*
D02*
X1682Y2773D02*
X3333Y2773D01*
G54D21*
D02*
X4928Y938D02*
X4867Y938D01*
D02*
X4928Y590D02*
X4928Y938D01*
G54D20*
D02*
X4726Y717D02*
X4727Y909D01*
D02*
X4728Y579D02*
X4726Y660D01*
D02*
X2553Y2673D02*
X2553Y1516D01*
D02*
X2553Y1516D02*
X3682Y1516D01*
D02*
X3682Y1516D02*
X3682Y688D01*
D02*
X3682Y688D02*
X4297Y688D01*
D02*
X1682Y2673D02*
X2553Y2673D01*
G54D21*
D02*
X4906Y1943D02*
X4907Y2054D01*
D02*
X4807Y1673D02*
X4806Y1863D01*
G54D20*
D02*
X5339Y1143D02*
X5339Y1135D01*
D02*
X4527Y1143D02*
X5339Y1143D01*
D02*
X4527Y1209D02*
X4527Y1143D01*
D02*
X4620Y1355D02*
X5193Y1355D01*
D02*
X4626Y1266D02*
X4620Y1355D01*
D02*
X5193Y1355D02*
X5193Y1515D01*
D02*
X5193Y1515D02*
X5307Y1515D01*
D02*
X5122Y1557D02*
X5068Y1557D01*
D02*
X5122Y2082D02*
X5122Y1557D01*
D02*
X5310Y2082D02*
X5122Y2082D01*
G54D21*
D02*
X5044Y2584D02*
X5044Y2584D01*
D02*
X5044Y2094D02*
X5044Y2584D01*
D02*
X4947Y2094D02*
X5044Y2094D01*
G54D20*
D02*
X4904Y2556D02*
X4907Y2422D01*
D02*
X3806Y2852D02*
X4247Y2854D01*
D02*
X3808Y3328D02*
X3806Y2852D01*
D02*
X3356Y3328D02*
X3808Y3328D01*
D02*
X3356Y2973D02*
X3356Y3328D01*
D02*
X1682Y2973D02*
X3356Y2973D01*
D02*
X4807Y3008D02*
X4807Y2422D01*
D02*
X5170Y3008D02*
X4807Y3008D01*
D02*
X5203Y3152D02*
X5170Y3008D01*
D02*
X5316Y3238D02*
X5203Y3152D01*
D02*
X4607Y3145D02*
X4607Y2422D01*
D02*
X5107Y3145D02*
X4607Y3145D01*
D02*
X5107Y3396D02*
X5107Y3145D01*
D02*
X5309Y3396D02*
X5107Y3396D01*
D02*
X2329Y3073D02*
X1682Y3073D01*
D02*
X2329Y3451D02*
X2329Y3073D01*
D02*
X4105Y3451D02*
X2329Y3451D01*
D02*
X4105Y3334D02*
X4105Y3451D01*
D02*
X4829Y3835D02*
X4253Y3835D01*
D02*
X4829Y3758D02*
X4829Y3835D01*
D02*
X5047Y3509D02*
X5445Y3509D01*
D02*
X5047Y3231D02*
X5047Y3509D01*
D02*
X4480Y3228D02*
X5047Y3231D01*
D02*
X5445Y3509D02*
X5438Y3120D01*
D02*
X4480Y2426D02*
X4480Y3228D01*
D02*
X4607Y2286D02*
X4607Y2365D01*
D02*
X4405Y2290D02*
X4607Y2286D01*
D02*
X4405Y3730D02*
X4405Y2290D01*
D02*
X4405Y1998D02*
X4524Y1998D01*
D02*
X4405Y2290D02*
X4405Y1998D01*
D02*
X4501Y3730D02*
X4405Y3730D01*
D02*
X4524Y1998D02*
X4527Y1266D01*
D02*
X3873Y2404D02*
X3725Y2404D01*
D02*
X3725Y2404D02*
X3725Y2813D01*
D02*
X3725Y2813D02*
X3582Y2813D01*
D02*
X5438Y2343D02*
X5438Y3120D01*
D02*
X5438Y3120D02*
X5374Y3120D01*
D02*
X5455Y827D02*
X5438Y2343D01*
D02*
X5372Y827D02*
X5455Y827D01*
D02*
X612Y874D02*
X679Y874D01*
D02*
X1951Y717D02*
X1446Y717D01*
D02*
X1951Y643D02*
X1951Y717D01*
G54D21*
D02*
X4304Y4137D02*
X4304Y4225D01*
D02*
X1147Y4137D02*
X4304Y4137D01*
D02*
X872Y4142D02*
X1147Y4137D01*
D02*
X247Y4142D02*
X872Y4142D01*
D02*
X246Y2793D02*
X247Y4142D01*
D02*
X247Y2042D02*
X246Y2793D01*
D02*
X4562Y4448D02*
X4562Y4353D01*
D02*
X1285Y4448D02*
X4562Y4448D01*
D02*
X1010Y4448D02*
X1285Y4448D01*
D02*
X82Y4448D02*
X1010Y4448D01*
D02*
X82Y3536D02*
X82Y4448D01*
D02*
X82Y1536D02*
X82Y3536D01*
G54D20*
D02*
X612Y713D02*
X677Y713D01*
D02*
X612Y874D02*
X612Y713D01*
D02*
X612Y1302D02*
X612Y1066D01*
D02*
X612Y1066D02*
X612Y874D01*
D02*
X610Y1572D02*
X612Y1302D01*
D02*
X612Y1922D02*
X610Y1610D01*
D02*
X670Y1922D02*
X612Y1922D01*
D02*
X555Y939D02*
X333Y939D01*
D02*
X333Y939D02*
X337Y1112D01*
D02*
X555Y663D02*
X555Y939D01*
G54D21*
D02*
X251Y1430D02*
X247Y1962D01*
D02*
X255Y1324D02*
X251Y1430D01*
G54D20*
D02*
X437Y1596D02*
X544Y1596D01*
D02*
X544Y1596D02*
X547Y1973D01*
D02*
X437Y1489D02*
X437Y1596D01*
D02*
X806Y684D02*
X806Y634D01*
D02*
X806Y634D02*
X584Y634D01*
D02*
X934Y714D02*
X988Y716D01*
D02*
X799Y2002D02*
X799Y1951D01*
D02*
X576Y2002D02*
X799Y2002D01*
D02*
X987Y1935D02*
X927Y1926D01*
D02*
X987Y868D02*
X936Y871D01*
G54D21*
D02*
X255Y1324D02*
X295Y1324D01*
D02*
X255Y674D02*
X255Y1324D01*
G04 End of Copper0*
M02*